<svg xmlns="http://www.w3.org/2000/svg" viewBox="0 0 100 100" fill="none">
  <defs>
    <linearGradient id="t3" x1="14" y1="6" x2="86" y2="94" gradientUnits="userSpaceOnUse">
      <stop stop-color="#FDE68A"/>
      <stop offset=".4" stop-color="#D4A017"/>
      <stop offset="1" stop-color="#92400E"/>
    </linearGradient>
  </defs>
  <circle cx="50" cy="50" r="43.4" stroke="url(#t3)" stroke-width="4"/>
  <circle cx="50" cy="50" r="41" stroke="#FEF3C7" stroke-opacity=".75" stroke-width="1.1"/>
  <g fill="url(#t3)">
    <g transform="rotate(0 50 50)"><ellipse cx="50" cy="6.4" rx="1.7" ry="4.1"/></g>
    <g transform="rotate(22.5 50 50)"><ellipse cx="50" cy="6.4" rx="1.7" ry="4.1"/></g>
    <g transform="rotate(45 50 50)"><ellipse cx="50" cy="6.4" rx="1.7" ry="4.1"/></g>
    <g transform="rotate(67.5 50 50)"><ellipse cx="50" cy="6.4" rx="1.7" ry="4.1"/></g>
    <g transform="rotate(90 50 50)"><ellipse cx="50" cy="6.4" rx="1.7" ry="4.1"/></g>
    <g transform="rotate(112.5 50 50)"><ellipse cx="50" cy="6.4" rx="1.7" ry="4.1"/></g>
    <g transform="rotate(135 50 50)"><ellipse cx="50" cy="6.4" rx="1.7" ry="4.1"/></g>
    <g transform="rotate(157.5 50 50)"><ellipse cx="50" cy="6.4" rx="1.7" ry="4.1"/></g>
    <g transform="rotate(180 50 50)"><ellipse cx="50" cy="6.4" rx="1.7" ry="4.1"/></g>
    <g transform="rotate(202.5 50 50)"><ellipse cx="50" cy="6.4" rx="1.7" ry="4.1"/></g>
    <g transform="rotate(225 50 50)"><ellipse cx="50" cy="6.4" rx="1.7" ry="4.1"/></g>
    <g transform="rotate(247.5 50 50)"><ellipse cx="50" cy="6.4" rx="1.7" ry="4.1"/></g>
    <g transform="rotate(270 50 50)"><ellipse cx="50" cy="6.4" rx="1.7" ry="4.1"/></g>
    <g transform="rotate(292.5 50 50)"><ellipse cx="50" cy="6.4" rx="1.7" ry="4.1"/></g>
    <g transform="rotate(315 50 50)"><ellipse cx="50" cy="6.4" rx="1.7" ry="4.1"/></g>
    <g transform="rotate(337.5 50 50)"><ellipse cx="50" cy="6.4" rx="1.7" ry="4.1"/></g>
  </g>
  <circle cx="50" cy="4.4" r="2.15" fill="#F59E0B"/>
  <circle cx="50" cy="95.6" r="2.15" fill="#F59E0B"/>
</svg>
